<svg xmlns="http://www.w3.org/2000/svg" width="25.563" height="25.563" viewBox="0 0 25.563 25.563"><defs><style>.a{fill:#14a5da;}</style></defs><path class="a" d="M18.508,0H7.054A7.062,7.062,0,0,0,0,7.054V18.508a7.062,7.062,0,0,0,7.054,7.054H18.508a7.062,7.062,0,0,0,7.055-7.054V7.054A7.062,7.062,0,0,0,18.508,0Zm4.787,18.508a4.792,4.792,0,0,1-4.786,4.786H7.054a4.792,4.792,0,0,1-4.786-4.786V7.054A4.792,4.792,0,0,1,7.054,2.268H18.508a4.792,4.792,0,0,1,4.786,4.786V18.508Z"/><path class="a" d="M47.555,40.97a6.587,6.587,0,1,0,6.587,6.587A6.594,6.594,0,0,0,47.555,40.97Zm0,10.905a4.319,4.319,0,1,1,4.319-4.318A4.324,4.324,0,0,1,47.555,51.875Z" transform="translate(-34.774 -34.775)"/><path class="a" d="M120.584,28.251a1.662,1.662,0,1,0,1.176.487A1.67,1.67,0,0,0,120.584,28.251Z" transform="translate(-100.94 -23.979)"/></svg>