<svg xmlns="http://www.w3.org/2000/svg" width="18.042" height="25.791" viewBox="0 0 18.042 25.791"><defs><style>.a{fill:#14a5da;}</style></defs><g transform="translate(2.573)"><g transform="translate(0)"><path class="a" d="M134.45,0A6.448,6.448,0,1,0,140.9,6.448,6.454,6.454,0,0,0,134.45,0Zm0,9.672a3.224,3.224,0,1,1,3.224-3.224A3.227,3.227,0,0,1,134.45,9.672Z" transform="translate(-128.002)"/></g></g><g transform="translate(0 12.244)"><g transform="translate(0)"><path class="a" d="M94.492,243.537a1.61,1.61,0,0,0-2.279,0,8.879,8.879,0,0,1-12.539,0,1.612,1.612,0,1,0-2.279,2.281,12.016,12.016,0,0,0,7.168,3.446l-4.6,4.6a1.612,1.612,0,1,0,2.279,2.279l3.7-3.7,3.7,3.7a1.612,1.612,0,1,0,2.279-2.279l-4.6-4.6a12.016,12.016,0,0,0,7.168-3.446A1.614,1.614,0,0,0,94.492,243.537Z" transform="translate(-76.922 -243.064)"/></g></g></svg>